<svg xmlns="http://www.w3.org/2000/svg" width="950" height="1104" viewBox="0 0 950 1104">
<g>
<path d="M 950.00 182.08 L 950.00 1104.00 L 949.87 736.25 C949.78,505.87 949.41,376.79 948.83,376.79 C948.82,376.79 948.81,376.84 948.79,376.95 C947.90,384.97 947.61,385.71 943.02,391.45 C936.99,399.01 922.43,413.15 914.50,419.17 C890.09,437.69 857.46,452.74 821.68,461.99 C790.46,470.05 771.19,472.74 735.60,473.99 C704.72,475.07 693.33,476.14 676.44,479.52 C654.62,483.89 633.49,492.22 617.67,502.70 C608.18,508.98 593.35,523.41 587.20,532.33 C574.90,550.17 567.89,570.31 566.30,592.43 L 565.64 601.50 L 563.81 595.50 C561.10,586.64 556.27,562.01 554.89,550.00 C553.31,536.19 553.31,504.09 554.90,491.50 C559.80,452.61 569.52,425.02 592.74,384.05 C605.52,361.52 630.62,326.00 647.57,306.50 C664.78,286.68 689.60,263.77 691.18,266.25 C691.61,266.94 691.98,274.02 692.00,282.00 C692.02,289.98 692.36,297.02 692.77,297.67 C693.28,298.46 696.41,296.75 702.51,292.38 C729.94,272.69 758.58,257.87 788.17,248.07 C795.14,245.76 801.08,243.24 801.37,242.47 C801.67,241.70 801.98,235.43 802.06,228.53 L 802.21 215.98 L 804.86 215.27 C806.31,214.87 815.60,214.56 825.50,214.57 C851.09,214.61 869.82,217.89 896.52,227.01 C907.49,230.76 935.76,243.89 943.87,248.99 C947.02,250.98 947.20,251.37 946.60,255.11 C945.55,261.67 940.01,277.94 935.92,286.49 C926.15,306.89 912.66,321.59 895.50,330.54 L 889.12 333.86 L 918.81 348.64 C935.14,356.76 948.84,363.58 949.25,363.79 L 949.25 363.79 C949.66,363.79 950.00,282.10 950.00,182.08 ZM 569.00 840.41 C566.05,841.83 563.54,843.00 563.43,843.00 C562.67,843.00 553.57,826.26 546.45,811.79 C523.56,765.25 508.87,716.15 504.94,673.00 C500.61,625.49 512.42,571.55 536.41,529.26 C543.21,517.28 544.42,515.54 543.54,519.00 C535.09,552.43 542.26,591.64 562.29,621.50 C572.07,636.07 574.59,638.40 605.56,661.47 L 635.62 683.87 L 651.56 689.54 C704.14,708.23 747.94,734.43 786.34,770.14 L 793.18 776.50 L 791.16 781.16 C790.06,783.72 789.45,786.20 789.82,786.66 C790.20,787.12 789.38,786.52 788.00,785.33 C786.62,784.14 778.54,777.95 770.04,771.58 C759.63,763.78 753.75,760.01 752.04,760.03 C749.47,760.06 737.65,763.77 739.50,763.97 C740.05,764.02 739.40,764.68 738.05,765.43 C736.70,766.17 734.94,766.53 734.14,766.22 C733.26,765.89 732.94,766.09 733.33,766.73 C734.01,767.83 731.95,769.00 729.33,769.00 C728.50,769.00 726.68,769.89 725.29,770.99 C723.90,772.08 722.39,772.74 721.94,772.46 C721.49,772.18 719.63,772.86 717.81,773.97 C715.99,775.08 713.71,775.99 712.75,776.00 C711.79,776.00 710.07,776.93 708.92,778.08 C707.78,779.22 706.24,779.92 705.51,779.64 C704.77,779.36 703.92,779.77 703.61,780.56 C703.31,781.35 702.11,782.00 700.94,782.00 C699.77,782.00 697.68,782.89 696.29,783.99 C694.90,785.08 693.38,785.74 692.91,785.44 C692.44,785.15 691.03,785.57 689.78,786.36 C688.53,787.15 686.04,788.11 684.25,788.48 C682.46,788.85 681.00,789.54 681.00,790.01 C681.00,790.90 677.06,792.54 675.75,792.20 C675.34,792.09 675.00,792.48 675.00,793.06 C675.00,793.64 674.55,793.84 674.00,793.50 C673.45,793.16 673.00,793.36 673.00,793.94 C673.00,794.52 672.13,795.00 671.07,795.00 C670.01,795.00 668.47,795.67 667.64,796.50 C666.82,797.33 665.32,798.00 664.32,798.01 C663.32,798.01 661.15,798.91 659.50,800.00 C657.85,801.09 655.49,801.99 654.25,801.99 C653.01,802.00 652.00,802.53 652.00,803.17 C652.00,803.81 651.72,804.05 651.38,803.71 C651.04,803.37 650.10,803.75 649.30,804.56 C648.50,805.36 647.43,805.76 646.92,805.45 C646.41,805.14 646.00,805.39 646.00,806.00 C646.00,806.61 645.55,806.84 645.00,806.50 C644.45,806.16 644.00,806.31 644.00,806.83 C644.00,807.35 642.41,808.08 640.47,808.44 C638.53,808.80 637.21,809.53 637.53,810.05 C638.06,810.91 636.69,811.43 634.73,811.11 C634.30,811.04 632.18,811.89 630.02,812.99 C627.85,814.10 625.39,815.00 624.54,815.00 C623.69,815.00 623.00,815.48 623.00,816.06 C623.00,816.64 622.59,816.86 622.09,816.55 C621.58,816.24 621.00,816.49 620.80,817.11 C620.59,817.72 619.10,818.37 617.48,818.55 C615.87,818.73 614.38,819.35 614.19,819.94 C613.99,820.52 613.00,821.00 611.99,821.00 C610.97,821.00 609.44,821.70 608.59,822.55 C607.73,823.41 606.24,824.26 605.27,824.45 C604.30,824.64 601.92,825.49 600.00,826.33 C598.08,827.18 595.24,828.14 593.71,828.47 C592.17,828.79 591.16,829.45 591.45,829.92 C592.15,831.05 589.14,832.21 587.76,831.35 C587.17,830.99 586.98,831.16 587.33,831.73 C587.96,832.74 585.47,833.92 581.66,834.43 C580.65,834.57 579.49,835.21 579.08,835.86 C578.68,836.51 577.46,837.22 576.37,837.43 C575.27,837.64 571.96,838.98 569.00,840.41 ZM 272.91 0.00 L 950.00 0.00 L 612.75 0.05 C289.29,0.11 275.72,0.18 281.00,1.87 C295.21,6.42 311.76,18.12 324.03,32.29 C349.69,61.93 375.10,114.96 394.84,180.06 C416.39,251.16 433.37,332.14 447.44,431.00 C452.59,467.12 458.28,514.31 457.80,516.81 C457.62,517.74 455.97,508.83 454.14,497.00 C437.54,389.58 414.42,286.23 391.86,218.55 C375.32,168.96 356.34,130.66 339.63,113.15 C334.43,107.71 331.76,105.91 322.08,101.35 C290.45,86.42 273.50,68.19 268.56,43.79 C265.98,31.02 267.02,16.40 271.38,4.25 L 272.91 0.00 ZM 811.98 920.89 C807.62,924.28 803.47,927.26 802.77,927.53 C802.04,927.81 800.22,925.98 798.51,923.26 C788.10,906.70 766.20,884.39 747.97,871.79 L 745.50 870.08 L 749.00 870.63 C756.43,871.80 772.17,877.19 780.85,881.53 C792.20,887.21 803.64,895.66 811.71,904.33 C812.12,904.77 812.52,905.19 812.89,905.59 C817.08,910.07 819.06,912.19 818.85,914.06 C818.65,915.90 816.35,917.50 811.98,920.89 Z" fill="rgb(23,145,169)"/>
<path d="M 0.00 1104.00 L 0.00 224.77 L 12.35 218.52 C55.50,196.67 100.59,188.75 143.14,195.56 C153.98,197.29 174.90,202.67 176.74,204.20 C177.67,204.97 177.93,209.22 177.75,220.52 L 177.50 235.79 L 188.00 240.98 C208.97,251.35 239.87,271.13 257.91,285.73 C261.99,289.03 263.52,289.79 264.16,288.80 C264.62,288.09 264.96,280.83 264.92,272.67 C264.87,264.51 265.09,257.57 265.41,257.25 C266.30,256.37 299.48,290.12 308.92,301.50 C338.33,336.96 368.03,382.75 382.81,415.41 C392.94,437.81 400.36,463.84 404.20,490.50 C406.16,504.05 405.87,545.57 403.72,560.00 C401.57,574.50 397.88,592.00 396.98,592.00 C396.61,592.00 396.03,588.29 395.70,583.75 C394.03,560.63 381.89,532.74 365.26,513.82 C335.33,479.74 290.65,462.04 224.50,458.05 C198.62,456.48 175.72,452.71 148.50,445.54 C89.49,429.98 41.79,402.78 12.67,368.07 L 5.29 359.28 L 4.02 349.68 C3.33,344.40 3.01,339.41 3.33,338.58 C4.12,336.52 46.78,316.35 54.37,314.44 L 57.00 313.78 L 57.02 321.64 L 57.02 322.19 C57.02,327.29 57.03,330.01 58.34,331.02 C59.83,332.16 63.01,331.12 69.80,328.88 L 70.45 328.67 C83.03,324.53 85.43,322.97 84.41,319.64 C84.05,318.47 83.69,317.46 83.63,317.41 C83.56,317.35 79.45,316.08 74.50,314.57 C40.40,304.17 17.23,278.73 3.40,236.50 L 0.13 226.50 ZM 491.09 473.13 C485.44,507.55 485.25,508.62 485.12,507.46 C485.05,506.88 485.90,497.70 487.00,487.05 C498.50,375.34 520.78,282.79 550.07,224.96 C571.67,182.31 596.95,158.06 625.37,152.71 C632.43,151.38 632.99,151.87 636.17,162.34 C638.98,171.57 638.40,181.12 634.52,189.77 C628.94,202.21 614.12,212.93 592.82,219.93 C578.27,224.72 570.94,230.91 559.37,248.18 C532.26,288.65 508.60,366.59 491.09,473.13 ZM 124.65 831.75 C122.56,835.19 120.66,838.00 120.42,838.00 C120.18,838.00 123.09,831.81 126.89,824.25 C139.35,799.42 149.91,785.20 173.50,761.46 C188.40,746.47 209.45,728.64 211.45,729.32 C212.28,729.61 212.49,744.13 211.68,744.58 C208.82,746.15 185.53,764.32 177.41,771.31 C157.41,788.53 135.97,813.08 124.65,831.75 ZM 222.57 857.41 C219.86,859.38 217.33,861.00 216.93,861.00 C216.54,861.00 215.17,860.15 213.88,859.10 L 211.53 857.20 L 215.52 856.16 C217.71,855.59 221.30,854.83 223.50,854.47 L 227.50 853.81 Z" fill="rgb(239,75,50)"/>
<path d="M 124.65 831.75 C135.97,813.08 157.41,788.53 177.41,771.31 C185.53,764.32 208.82,746.15 211.68,744.58 C212.49,744.13 212.28,729.61 211.45,729.32 C210.75,729.09 207.69,731.14 203.36,734.55 C207.44,731.26 211.06,728.56 213.92,726.75 L 217.00 724.80 L 217.00 732.51 C217.00,739.24 217.21,740.13 218.64,739.59 C219.54,739.24 226.18,735.43 233.39,731.12 C240.60,726.81 251.29,720.69 257.15,717.53 C268.69,711.29 269.00,710.88 269.00,701.81 C269.00,699.64 269.44,697.05 269.97,696.05 C271.68,692.85 307.19,678.82 325.63,674.05 C328.37,673.35 338.52,666.69 355.63,654.37 C369.86,644.13 383.47,634.16 385.89,632.20 C390.93,628.11 400.08,616.14 405.24,606.87 C420.11,580.18 424.60,546.41 417.17,517.17 C416.17,513.23 415.49,510.00 415.65,510.00 C416.37,510.00 428.54,531.45 432.95,540.50 C458.45,592.83 466.39,646.98 456.84,703.50 C449.64,746.14 429.88,801.06 409.06,836.30 C403.34,845.99 391.87,861.44 378.42,877.60 C331.31,934.18 283.93,967.67 240.00,975.45 C230.71,977.10 202.80,978.22 192.50,977.36 C189.75,977.13 180.60,976.05 172.18,974.95 L 156.86 972.95 L 146.30 966.74 L 135.74 960.53 L 136.40 951.05 C137.69,932.76 142.46,915.81 150.12,902.36 C154.35,894.93 166.35,881.03 172.00,877.00 L 174.75 875.04 L 183.94 879.03 L 193.14 883.02 L 203.56 873.26 C209.29,867.89 213.98,863.28 213.98,863.00 C213.98,862.72 212.53,861.66 210.74,860.63 C207.05,858.49 207.12,858.43 216.50,855.57 L 221.50 854.04 L 213.62 854.45 C193.27,855.52 153.53,851.71 130.52,846.49 C124.48,845.12 119.16,844.00 118.70,844.00 C117.29,844.00 118.89,840.06 126.22,825.50 C127.14,823.66 128.07,821.85 129.01,820.08 C128.31,821.44 127.60,822.83 126.89,824.25 C123.09,831.81 120.18,838.00 120.42,838.00 C120.66,838.00 122.56,835.19 124.65,831.75 ZM 569.00 840.41 C571.96,838.98 575.27,837.64 576.37,837.43 C577.46,837.22 578.68,836.51 579.08,835.86 C579.49,835.21 580.65,834.57 581.66,834.43 C585.47,833.92 587.96,832.74 587.33,831.73 C586.98,831.16 587.17,830.99 587.76,831.35 C589.14,832.21 592.15,831.05 591.45,829.92 C591.16,829.45 592.17,828.79 593.71,828.47 C595.24,828.14 598.08,827.18 600.00,826.33 C601.92,825.49 604.30,824.64 605.27,824.45 C606.24,824.26 607.73,823.41 608.59,822.55 C609.44,821.70 610.97,821.00 611.99,821.00 C613.00,821.00 613.99,820.52 614.19,819.94 C614.38,819.35 615.87,818.73 617.48,818.55 C619.10,818.37 620.59,817.72 620.80,817.11 C621.00,816.49 621.58,816.24 622.09,816.55 C622.59,816.86 623.00,816.64 623.00,816.06 C623.00,815.48 623.69,815.00 624.54,815.00 C625.39,815.00 627.85,814.10 630.02,812.99 C632.18,811.89 634.30,811.04 634.73,811.11 C636.69,811.43 638.06,810.91 637.53,810.05 C637.21,809.53 638.53,808.80 640.47,808.44 C642.41,808.08 644.00,807.35 644.00,806.83 C644.00,806.31 644.45,806.16 645.00,806.50 C645.55,806.84 646.00,806.61 646.00,806.00 C646.00,805.39 646.41,805.14 646.92,805.45 C647.43,805.76 648.50,805.36 649.30,804.56 C650.10,803.75 651.04,803.37 651.38,803.71 C651.72,804.05 652.00,803.81 652.00,803.17 C652.00,802.53 653.01,802.00 654.25,801.99 C655.49,801.99 657.85,801.09 659.50,800.00 C661.15,798.91 663.32,798.01 664.32,798.01 C665.32,798.00 666.82,797.33 667.64,796.50 C668.47,795.67 670.01,795.00 671.07,795.00 C672.13,795.00 673.00,794.52 673.00,793.94 C673.00,793.36 673.45,793.16 674.00,793.50 C674.55,793.84 675.00,793.64 675.00,793.06 C675.00,792.48 675.34,792.09 675.75,792.20 C677.06,792.54 681.00,790.90 681.00,790.01 C681.00,789.54 682.46,788.85 684.25,788.48 C686.04,788.11 688.53,787.15 689.78,786.36 C691.03,785.57 692.44,785.15 692.91,785.44 C693.38,785.74 694.90,785.08 696.29,783.99 C697.68,782.89 699.77,782.00 700.94,782.00 C702.11,782.00 703.31,781.35 703.61,780.56 C703.92,779.77 704.77,779.36 705.51,779.64 C706.24,779.92 707.78,779.22 708.92,778.08 C710.07,776.93 711.79,776.00 712.75,776.00 C713.71,775.99 715.99,775.08 717.81,773.97 C719.63,772.86 721.49,772.18 721.94,772.46 C722.39,772.74 723.90,772.08 725.29,770.99 C726.68,769.89 728.50,769.00 729.33,769.00 C731.95,769.00 734.01,767.83 733.33,766.73 C732.94,766.09 733.26,765.89 734.14,766.22 C734.94,766.53 736.70,766.17 738.05,765.43 C739.40,764.68 740.05,764.02 739.50,763.97 C737.65,763.77 749.47,760.06 752.04,760.03 C753.75,760.01 759.63,763.78 770.04,771.58 C778.54,777.95 786.62,784.14 788.00,785.33 C789.38,786.52 790.20,787.12 789.82,786.66 C789.81,786.64 789.80,786.62 789.79,786.60 L 803.57 799.72 C811.53,807.30 818.45,813.64 818.95,813.81 C819.45,813.98 820.37,813.18 820.98,812.03 C822.30,809.57 821.03,807.52 811.23,796.25 C804.07,788.02 803.61,786.53 810.49,793.89 C818.54,802.49 829.35,816.32 835.64,826.05 C844.35,839.52 856.01,863.32 854.59,864.74 C853.78,865.55 842.09,867.78 828.97,869.64 C819.31,871.00 809.50,871.41 785.45,871.45 L 754.40 871.50 L 764.24 874.72 C768.88,876.24 773.42,878.04 777.80,880.09 C768.86,876.07 755.63,871.67 749.00,870.63 L 745.50 870.08 L 747.97 871.79 C766.20,884.39 788.10,906.70 798.51,923.26 C800.22,925.98 802.04,927.81 802.77,927.53 C803.28,927.34 805.64,925.69 808.57,923.49 C804.83,926.43 802.16,928.76 802.30,928.99 C802.47,929.27 805.25,935.01 808.48,941.75 C811.71,948.49 814.95,954.00 815.69,954.00 C816.43,954.00 820.43,951.30 824.58,948.00 C828.73,944.70 832.76,942.00 833.52,942.00 C835.92,942.00 840.46,959.84 841.57,973.65 L 842.20 981.50 L 832.35 987.00 C822.89,992.28 822.07,992.55 811.50,993.65 C796.35,995.23 761.68,995.10 750.13,993.42 C726.02,989.91 704.45,981.15 680.00,964.93 C661.30,952.53 648.74,941.88 626.48,919.57 C596.79,889.81 572.57,859.94 559.81,837.34 C549.84,819.67 540.99,801.37 533.45,782.96 C537.42,792.62 541.76,802.26 546.45,811.79 C553.57,826.26 562.67,843.00 563.43,843.00 C563.54,843.00 566.05,841.83 569.00,840.41 ZM 229.72 265.45 C215.42,256.03 200.07,246.95 188.00,240.98 L 177.50 235.79 L 177.75 220.52 C177.93,209.22 177.67,204.97 176.74,204.20 C176.57,204.06 176.23,203.88 175.75,203.68 C178.23,204.51 180.46,205.31 182.04,205.96 C186.15,207.63 189.61,208.99 189.75,209.00 C189.89,209.00 190.00,216.42 190.00,225.48 L 190.00 241.97 L 195.25 244.62 C203.19,248.64 217.28,257.20 229.72,265.45 ZM 266.42 257.84 C265.85,257.38 265.49,257.17 265.41,257.25 C265.09,257.57 264.87,264.51 264.92,272.67 C264.96,280.83 264.62,288.09 264.16,288.80 C263.52,289.79 261.99,289.03 257.91,285.73 C254.90,283.29 251.53,280.71 247.91,278.05 C254.18,282.37 256.64,283.60 257.13,282.82 C257.59,282.09 257.98,274.86 257.98,266.75 C257.99,258.64 258.29,252.00 258.64,252.00 C259.48,252.00 262.37,254.23 266.42,257.84 ZM 67.38 329.67 C62.23,331.35 59.64,332.02 58.34,331.02 C57.03,330.01 57.02,327.29 57.02,322.19 L 57.02 321.64 L 57.00 313.78 L 54.37 314.44 C53.46,314.67 52.05,315.16 50.27,315.85 C55.70,313.54 59.57,312.00 60.22,312.00 C60.65,312.00 61.01,315.71 61.02,320.25 C61.02,324.79 61.42,329.12 61.90,329.87 C62.46,330.76 63.59,330.80 67.38,329.67 ZM 222.57 857.41 L 227.50 853.81 L 223.50 854.47 C221.30,854.83 217.71,855.59 215.52,856.16 L 211.53 857.20 L 213.88 859.10 C215.17,860.15 216.54,861.00 216.93,861.00 C217.33,861.00 219.86,859.38 222.57,857.41 ZM 72.92 314.08 C41.15,303.87 19.06,280.33 5.27,241.93 C19.27,280.92 41.89,304.62 74.50,314.57 C79.45,316.08 83.56,317.35 83.63,317.41 C83.69,317.46 84.05,318.47 84.41,319.64 C84.99,321.55 84.46,322.87 81.56,324.42 C81.89,324.14 82.10,323.85 82.22,323.52 C82.49,322.81 82.35,321.94 82.13,320.66 L 82.10 320.46 C81.51,316.90 81.34,316.78 72.92,314.08 ZM 21.38 328.81 C11.71,333.48 3.67,337.70 3.33,338.58 C3.07,339.27 3.24,342.90 3.72,347.17 L 2.65 338.77 L 5.07 336.94 C6.34,335.98 13.05,332.69 21.38,328.81 ZM 99.84 193.63 C70.70,195.59 41.09,203.96 12.35,218.52 C41.43,203.79 70.70,195.48 99.84,193.63 ZM 171.78 763.20 C161.20,773.93 153.31,782.74 146.65,791.60 C148.43,789.17 150.23,786.81 152.08,784.51 C156.85,778.57 163.94,770.98 171.78,763.20 ZM 305.05 297.05 C297.27,288.36 284.00,274.65 274.98,265.80 C284.63,275.08 296.53,287.34 305.05,297.05 ZM 818.38 912.11 C817.57,910.59 815.74,908.63 812.89,905.59 C812.52,905.19 812.12,904.77 811.71,904.33 C805.60,897.77 797.55,891.33 789.08,886.12 C797.62,891.30 805.32,897.46 811.71,904.33 C815.23,908.10 817.47,910.37 818.38,912.11 ZM 166.00 200.66 C161.78,199.53 156.86,198.33 152.28,197.33 C156.04,198.11 159.79,198.99 163.54,199.99 C164.33,200.20 165.15,200.42 166.00,200.66 ZM 4.40 352.49 L 5.29 359.28 L 5.26 359.24 ZM 814.45 918.98 C815.26,918.35 815.97,917.79 816.56,917.27 C815.97,917.79 815.27,918.35 814.45,918.98 Z" fill="rgb(220,207,24)"/>
<path d="M 0.06 665.25 L 0.13 226.50 L 3.40 236.50 C17.03,278.12 39.68,303.40 72.92,314.08 C81.34,316.78 81.51,316.90 82.10,320.46 C82.80,324.71 82.98,324.59 71.13,328.49 C64.25,330.75 62.61,331.00 61.90,329.87 C61.42,329.12 61.02,324.79 61.02,320.25 C61.01,315.71 60.65,312.00 60.22,312.00 C57.75,312.00 8.74,334.16 5.07,336.94 L 2.65 338.77 L 3.95 349.01 L 5.26 359.24 L 12.65 368.05 C41.79,402.78 89.47,429.98 148.50,445.54 C175.72,452.71 198.62,456.48 224.50,458.05 C290.65,462.04 335.33,479.74 365.26,513.82 C381.89,532.74 394.03,560.63 395.70,583.75 C396.03,588.29 396.61,592.00 396.98,592.00 C397.88,592.00 401.57,574.50 403.72,560.00 C405.87,545.57 406.16,504.05 404.20,490.50 C400.36,463.84 392.94,437.81 382.81,415.41 C368.00,382.66 337.89,336.28 308.87,301.50 C294.11,283.82 261.83,252.00 258.64,252.00 C258.29,252.00 257.99,258.64 257.98,266.75 C257.98,274.86 257.59,282.09 257.13,282.82 C256.50,283.81 252.69,281.56 241.90,273.81 C227.94,263.79 205.99,250.05 195.25,244.62 L 190.00 241.97 L 190.00 225.48 C190.00,216.42 189.89,209.00 189.75,209.00 C189.61,208.99 186.15,207.63 182.04,205.96 C177.94,204.28 169.62,201.60 163.54,199.99 C113.68,186.76 62.74,193.00 12.35,218.52 L 0.00 224.77 L 0.00 112.39 L 0.00 0.00 L 136.46 0.00 L 272.91 0.00 L 271.38 4.25 C267.02,16.40 265.98,31.02 268.56,43.79 C273.50,68.19 290.45,86.42 322.08,101.35 C331.76,105.91 334.43,107.71 339.63,113.15 C356.34,130.66 375.32,168.96 391.86,218.55 C414.42,286.23 437.54,389.58 454.14,497.00 C455.97,508.83 457.62,517.74 457.80,516.81 C458.28,514.31 452.59,467.12 447.44,431.00 C433.37,332.14 416.39,251.16 394.84,180.06 C375.10,114.96 349.69,61.93 324.03,32.29 C311.76,18.12 295.21,6.42 281.00,1.87 C275.72,0.18 289.29,0.11 612.75,0.05 L 950.00 0.00 L 950.00 182.08 C950.00,282.23 949.66,364.00 949.25,363.79 C948.84,363.58 935.14,356.76 918.81,348.64 L 889.12 333.86 L 895.50 330.54 C912.66,321.59 926.15,306.89 935.92,286.49 C940.01,277.94 945.55,261.67 946.60,255.11 C947.20,251.37 947.02,250.98 943.87,248.99 C935.76,243.89 907.49,230.76 896.52,227.01 C869.82,217.89 851.09,214.61 825.50,214.57 C815.60,214.56 806.31,214.87 804.86,215.27 L 802.21 215.98 L 802.06 228.53 C801.98,235.43 801.67,241.70 801.37,242.47 C801.08,243.24 795.14,245.76 788.17,248.07 C758.58,257.87 729.94,272.69 702.51,292.38 C696.41,296.75 693.28,298.46 692.77,297.67 C692.36,297.02 692.02,289.98 692.00,282.00 C691.98,274.02 691.61,266.94 691.18,266.25 C689.60,263.77 664.78,286.68 647.57,306.50 C630.62,326.00 605.52,361.52 592.74,384.05 C569.52,425.02 559.80,452.61 554.90,491.50 C553.31,504.09 553.31,536.19 554.89,550.00 C556.27,562.01 561.10,586.64 563.81,595.50 L 565.64 601.50 L 566.30 592.43 C567.89,570.31 574.90,550.17 587.20,532.33 C593.35,523.41 608.18,508.98 617.67,502.70 C633.49,492.22 654.62,483.89 676.44,479.52 C693.33,476.14 704.72,475.07 735.60,473.99 C771.19,472.74 790.46,470.05 821.68,461.99 C857.46,452.74 890.09,437.69 914.50,419.17 C922.43,413.15 936.99,399.01 943.02,391.45 C947.61,385.71 947.90,384.97 948.79,376.95 C949.39,371.55 949.78,501.15 949.87,736.25 L 950.00 1104.00 L 475.00 1104.00 L 0.00 1104.00 L 0.06 665.25 ZM 811.50 993.65 C822.07,992.55 822.89,992.28 832.35,987.00 L 842.20 981.50 L 841.57 973.65 C840.46,959.84 835.92,942.00 833.52,942.00 C832.76,942.00 828.73,944.70 824.58,948.00 C820.43,951.30 816.43,954.00 815.69,954.00 C814.95,954.00 811.71,948.49 808.48,941.75 C805.25,935.01 802.47,929.27 802.30,928.99 C802.13,928.71 806.03,925.40 810.97,921.63 C821.37,913.70 821.33,914.65 811.71,904.33 C799.55,891.27 782.69,880.76 764.24,874.72 L 754.40 871.50 L 785.45 871.45 C809.50,871.41 819.31,871.00 828.97,869.64 C842.09,867.78 853.78,865.55 854.59,864.74 C856.01,863.32 844.35,839.52 835.64,826.05 C829.35,816.32 818.54,802.49 810.49,793.89 C803.61,786.53 804.07,788.02 811.23,796.25 C821.03,807.52 822.30,809.57 820.98,812.03 C820.37,813.18 819.45,813.98 818.95,813.81 C818.45,813.64 811.53,807.30 803.57,799.72 L 789.10 785.94 L 791.14 781.22 L 793.18 776.50 L 786.34 770.14 C747.94,734.43 704.14,708.23 651.56,689.54 L 635.62 683.87 L 605.56 661.47 C574.59,638.40 572.07,636.07 562.29,621.50 C542.26,591.64 535.09,552.43 543.54,519.00 C544.42,515.54 543.21,517.28 536.41,529.26 C512.42,571.55 500.61,625.49 504.94,673.00 C509.60,724.08 529.47,783.59 559.81,837.34 C572.57,859.94 596.79,889.81 626.48,919.57 C648.74,941.88 661.30,952.53 680.00,964.93 C704.45,981.15 726.02,989.91 750.13,993.42 C761.68,995.10 796.35,995.23 811.50,993.65 ZM 240.00 975.45 C283.93,967.67 331.31,934.18 378.42,877.60 C391.87,861.44 403.34,845.99 409.06,836.30 C429.88,801.06 449.64,746.14 456.84,703.50 C466.39,646.98 458.45,592.83 432.95,540.50 C428.54,531.45 416.37,510.00 415.65,510.00 C415.49,510.00 416.17,513.23 417.17,517.17 C424.60,546.41 420.11,580.18 405.24,606.87 C400.08,616.14 390.93,628.11 385.89,632.20 C383.47,634.16 369.86,644.13 355.63,654.37 C338.52,666.69 328.37,673.35 325.63,674.05 C307.19,678.82 271.68,692.85 269.97,696.05 C269.44,697.05 269.00,699.64 269.00,701.81 C269.00,710.88 268.69,711.29 257.15,717.53 C251.29,720.69 240.60,726.81 233.39,731.12 C226.18,735.43 219.54,739.24 218.64,739.59 C217.21,740.13 217.00,739.24 217.00,732.51 L 217.00 724.80 L 213.92 726.75 C199.59,735.83 166.00,767.20 152.08,784.51 C142.68,796.21 134.19,809.66 126.22,825.50 C118.89,840.06 117.29,844.00 118.70,844.00 C119.16,844.00 124.48,845.12 130.52,846.49 C153.53,851.71 193.27,855.52 213.62,854.45 L 221.50 854.04 L 216.50 855.57 C207.12,858.43 207.05,858.49 210.74,860.63 C212.53,861.66 213.98,862.72 213.98,863.00 C213.98,863.28 209.29,867.89 203.56,873.26 L 193.14 883.02 L 183.94 879.03 L 174.75 875.04 L 172.00 877.00 C166.35,881.03 154.35,894.93 150.12,902.36 C142.46,915.81 137.69,932.76 136.40,951.05 L 135.74 960.53 L 146.30 966.74 L 156.86 972.95 L 172.18 974.95 C180.60,976.05 189.75,977.13 192.50,977.36 C202.80,978.22 230.71,977.10 240.00,975.45 ZM 491.09 473.13 C508.60,366.59 532.26,288.65 559.37,248.18 C570.94,230.91 578.27,224.72 592.82,219.93 C614.12,212.93 628.94,202.21 634.52,189.77 C638.40,181.12 638.98,171.57 636.17,162.34 C632.99,151.87 632.43,151.38 625.37,152.71 C596.95,158.06 571.67,182.31 550.07,224.96 C520.78,282.79 498.50,375.34 487.00,487.05 C485.90,497.70 485.05,506.88 485.12,507.46 C485.25,508.62 485.44,507.55 491.09,473.13 Z" fill="rgb(254,254,254)"/>
</g>
</svg>