<svg xmlns="http://www.w3.org/2000/svg" width="537" height="537" viewBox="0 0 537 537">
<g>
<path d="M 375.68 339.15 C375.04,340.17 374.29,340.96 374.01,340.90 C373.73,340.85 370.58,338.83 367.01,336.42 C363.45,334.01 355.80,329.72 350.01,326.87 C344.23,324.03 337.57,320.39 335.22,318.78 C328.83,314.42 318.79,305.88 319.36,305.30 C319.64,305.03 320.46,305.31 321.18,305.94 C326.80,310.80 336.24,316.49 342.28,318.66 C351.82,322.08 359.82,326.13 369.17,332.26 C375.97,336.73 376.70,337.50 375.68,339.15 ZM 298.28 292.38 C291.94,295.56 291.00,295.62 291.00,292.82 C291.00,288.85 295.07,275.61 298.48,268.50 L 301.83 261.50 L 301.95 269.50 C302.02,274.34 302.78,279.58 303.88,282.75 C304.80,285.41 305.33,286.83 304.95,287.94 C304.48,289.32 302.59,290.22 298.28,292.38 ZM 387.25 388.61 C386.29,389.34 385.26,389.95 384.97,389.97 C384.67,389.99 381.99,387.52 379.00,384.50 C372.62,378.04 373.96,377.26 383.11,382.14 C389.38,385.48 390.03,386.50 387.25,388.61 Z" fill="rgba(0,0,0,1)"/>
<path d="M 311.25 280.46 C310.97,282.96 310.39,285.00 309.96,285.00 C308.46,285.00 306.62,270.38 306.70,259.00 C306.79,245.36 309.03,235.71 314.93,223.55 C323.62,205.62 341.58,182.62 353.98,173.52 C356.61,171.58 359.05,170.00 359.38,170.00 C359.72,170.00 360.00,172.48 360.00,175.50 C360.00,178.52 360.23,181.00 360.52,181.00 C361.26,181.00 372.00,174.99 375.25,172.75 C377.62,171.13 378.00,170.18 378.00,165.97 L 378.00 161.08 L 382.25 159.88 C384.59,159.22 391.45,158.65 397.50,158.61 C410.24,158.53 419.54,160.73 431.15,166.58 C438.06,170.06 438.21,170.21 437.60,173.32 C435.98,181.68 426.52,195.24 420.93,197.22 C418.95,197.92 419.31,198.17 429.75,203.39 C438.93,207.99 439.00,208.05 439.00,211.75 C439.00,215.05 438.21,216.23 432.01,222.19 C417.94,235.71 396.99,243.32 369.00,245.08 C360.48,245.61 350.80,246.53 347.50,247.11 C339.32,248.56 328.15,253.90 322.60,259.02 C317.25,263.94 311.99,273.89 311.25,280.46 ZM 375.68 339.15 C376.21,338.29 376.27,337.67 375.24,336.63 C377.54,338.40 379.74,340.22 381.78,342.08 C385.26,345.23 386.58,347.07 386.01,347.98 C385.39,348.99 383.71,348.20 379.00,344.66 C375.59,342.10 372.37,340.00 371.85,340.00 C371.32,340.00 357.73,345.79 341.64,352.87 C325.55,359.95 311.42,366.05 310.24,366.43 C308.31,367.03 307.60,366.10 303.54,357.64 C292.26,334.14 288.10,312.81 291.00,292.98 C291.04,295.62 292.06,295.50 298.28,292.38 C302.59,290.22 304.48,289.32 304.95,287.94 C305.33,286.83 304.80,285.41 303.88,282.75 C303.06,280.37 302.42,276.83 302.13,273.17 C302.85,281.21 305.57,289.07 309.84,295.26 C314.42,301.92 333.00,315.33 342.21,318.62 C343.79,319.18 345.39,319.79 346.98,320.45 C345.45,319.83 343.88,319.23 342.28,318.66 C336.24,316.49 326.80,310.80 321.18,305.94 C320.46,305.31 319.64,305.03 319.36,305.30 C318.79,305.88 328.83,314.42 335.22,318.78 C337.57,320.39 344.23,324.03 350.01,326.87 C355.80,329.72 363.45,334.01 367.01,336.42 C370.58,338.83 373.73,340.85 374.01,340.90 C374.29,340.96 375.04,340.17 375.68,339.15 ZM 271.55 235.75 C271.82,236.99 271.58,238.00 271.02,238.00 C270.46,238.00 270.00,237.16 270.00,236.13 C270.00,233.18 264.21,204.91 260.34,189.00 C253.43,160.54 243.53,134.75 236.11,125.89 C234.45,123.91 230.48,120.98 227.30,119.39 C215.35,113.42 208.94,103.22 210.52,92.69 C211.59,85.56 212.05,85.30 218.36,88.39 C237.23,97.62 252.68,133.39 264.94,196.23 C266.62,204.89 268.69,216.81 269.53,222.73 C270.37,228.66 271.28,234.51 271.55,235.75 ZM 387.25 388.61 C388.83,387.41 389.30,386.57 388.27,385.45 C389.81,386.54 391.14,387.62 392.05,388.55 C395.27,391.88 395.31,392.00 393.52,393.98 C391.67,396.02 388.00,396.77 388.00,395.10 C388.00,394.61 384.81,390.78 380.90,386.60 C380.10,385.75 379.39,384.96 378.75,384.25 C378.83,384.33 378.92,384.42 379.00,384.50 C381.99,387.52 384.67,389.99 384.97,389.97 C385.26,389.95 386.29,389.34 387.25,388.61 ZM 292.87 283.83 C293.98,279.59 295.44,275.41 297.23,271.30 C295.65,275.07 294.05,279.73 292.87,283.83 ZM 381.55 381.33 C380.08,380.57 378.86,380.00 377.88,379.61 C378.95,380.02 380.21,380.62 381.55,381.33 ZM 301.83 261.50 L 301.83 261.50 L 301.58 262.02 L 301.83 261.50 Z" fill="rgba(25,146,175,1)"/>
<path d="M 272.60 244.27 C272.94,244.60 273.02,245.44 272.79,246.14 C272.45,247.15 272.21,247.15 271.58,246.13 C270.75,244.78 271.59,243.25 272.60,244.27 Z" fill="rgba(171,215,226,1)"/>
<path d="M 203.00 412.93 C197.89,414.09 186.02,414.12 178.31,412.99 C171.36,411.98 165.85,408.58 166.44,405.67 C166.68,404.48 167.14,401.55 167.46,399.17 C168.20,393.74 171.91,386.35 175.72,382.74 C177.32,381.22 181.47,378.46 184.95,376.60 L 191.26 373.23 L 183.88 372.57 C171.13,371.42 161.84,369.74 161.36,368.49 C160.15,365.35 171.83,351.45 184.14,341.39 C189.13,337.31 191.00,335.12 191.00,333.39 C191.00,331.76 192.27,330.09 195.06,328.07 C200.67,324.01 216.12,316.54 224.25,313.96 C234.20,310.81 250.73,298.79 255.42,291.29 C259.82,284.25 262.51,273.01 261.62,265.39 C261.27,262.43 261.24,260.00 261.56,260.00 C261.87,260.00 263.87,263.71 265.99,268.25 C276.82,291.36 277.75,314.64 268.92,341.13 C262.48,360.44 255.03,372.62 240.01,388.38 C227.53,401.47 214.04,410.42 203.00,412.93 ZM 393.52 393.98 C394.52,392.87 394.95,392.35 394.57,391.51 C397.77,395.47 400.05,400.11 401.45,405.47 C403.74,414.27 403.55,415.37 399.34,417.37 C397.10,418.44 392.53,419.26 387.59,419.48 C364.10,420.54 351.69,414.91 330.45,393.60 C320.84,383.95 313.67,375.21 307.97,365.77 C308.75,366.66 309.37,366.70 310.24,366.43 C311.42,366.05 325.55,359.95 341.64,352.87 C357.73,345.79 371.32,340.00 371.85,340.00 C372.37,340.00 375.59,342.10 379.00,344.66 C383.71,348.20 385.39,348.99 386.01,347.98 C386.50,347.19 385.58,345.71 383.07,343.28 C383.35,343.53 383.63,343.77 383.91,344.02 C388.96,348.56 395.04,355.02 397.43,358.38 C402.27,365.22 407.41,374.92 406.61,375.72 C405.71,376.62 397.87,377.78 387.65,378.53 L 377.81 379.25 L 383.15 382.17 C384.87,383.12 386.49,384.14 387.99,385.25 C383.53,382.13 377.55,379.00 375.51,379.00 C374.37,379.00 376.17,381.53 380.90,386.60 C384.81,390.78 388.00,394.61 388.00,395.10 C388.00,396.77 391.67,396.02 393.52,393.98 ZM 212.15 179.89 C211.96,182.70 211.51,184.98 211.15,184.96 C210.79,184.94 206.90,182.26 202.51,179.01 C198.11,175.76 190.58,171.02 185.76,168.48 L 177.00 163.86 L 177.00 158.93 C177.00,156.22 177.46,154.00 178.02,154.00 C182.59,154.00 201.17,164.57 209.00,171.63 C212.26,174.57 212.48,175.13 212.15,179.89 ZM 359.49 170.09 C364.78,166.56 370.12,163.81 375.34,161.97 C376.22,161.66 377.11,161.37 378.00,161.10 L 378.00 165.97 C378.00,170.18 377.62,171.13 375.25,172.75 C372.00,174.99 361.26,181.00 360.52,181.00 C360.23,181.00 360.00,178.52 360.00,175.50 C360.00,172.81 359.78,170.55 359.49,170.09 ZM 145.37 196.39 C139.07,198.54 139.00,198.51 139.00,194.61 C139.00,190.46 140.67,189.64 145.66,191.37 C150.91,193.19 150.83,194.53 145.37,196.39 ZM 385.73 159.28 C393.22,158.00 401.00,158.00 408.75,159.26 C405.22,158.79 401.53,158.58 397.50,158.61 C393.39,158.63 388.91,158.91 385.73,159.28 ZM 320.40 213.55 C322.11,210.68 324.02,207.68 326.12,204.50 C330.26,198.25 334.85,192.43 339.71,187.19 C332.84,195.00 325.88,204.47 320.40,213.55 ZM 290.62 315.06 C291.23,320.86 292.38,326.78 294.06,332.86 C293.95,332.47 293.84,332.08 293.72,331.69 C291.59,324.29 290.86,321.17 290.62,315.06 ZM 301.58 262.02 L 298.46 268.60 C295.04,275.81 292.66,283.21 291.34,290.82 C292.38,283.09 294.53,276.75 298.48,268.50 L 301.58 262.02 ZM 367.83 331.41 C361.25,327.13 354.09,323.36 346.91,320.42 C354.39,323.43 361.19,326.98 367.83,331.41 ZM 297.53 343.54 C299.24,348.15 301.24,352.85 303.54,357.64 C303.81,358.20 304.07,358.74 304.31,359.24 C301.78,354.34 299.56,349.17 297.53,343.54 ZM 329.18 311.57 C321.07,306.25 312.71,299.43 309.84,295.26 C312.70,299.42 321.07,306.24 329.18,311.57 ZM 303.19 279.85 C302.41,276.47 301.98,272.98 301.93,269.50 L 301.83 261.50 L 301.83 261.50 L 301.94 269.50 C301.98,272.98 302.41,276.47 303.19,279.85 ZM 313.37 226.90 C313.64,226.28 313.92,225.66 314.22,225.04 C313.92,225.66 313.64,226.29 313.37,226.90 Z" fill="rgba(222,208,38,1)"/>
<path d="M 212.15 179.89 C212.36,176.85 212.35,175.53 211.47,174.20 C213.38,175.99 215.30,177.88 217.23,179.90 C238.88,202.50 252.90,228.04 256.11,250.68 C257.13,257.90 256.71,273.24 255.34,278.75 C254.50,282.14 253.33,281.46 252.65,277.20 C250.86,266.02 240.67,253.39 228.75,247.57 C219.36,242.99 212.50,241.30 198.17,240.05 C177.55,238.25 163.17,234.47 148.60,227.00 C133.40,219.21 122.00,208.78 122.00,202.67 C122.00,199.33 122.20,199.17 131.50,194.95 C136.73,192.58 141.00,190.37 141.00,190.05 C141.00,189.72 139.36,188.57 137.35,187.49 C132.71,184.99 126.68,177.02 123.49,169.16 C122.12,165.80 121.00,162.64 121.00,162.15 C121.00,160.79 134.39,155.12 141.84,153.33 C150.73,151.20 167.63,151.23 175.70,153.38 C176.45,153.58 177.20,153.79 177.95,154.01 C177.42,154.20 177.00,156.34 177.00,158.93 L 177.00 163.86 L 185.76 168.48 C190.58,171.02 198.11,175.76 202.51,179.01 C206.90,182.26 210.79,184.94 211.15,184.96 C211.51,184.98 211.96,182.70 212.15,179.89 ZM 291.34 215.00 C286.20,236.24 285.32,235.21 289.46,212.82 C295.23,181.65 304.87,157.29 315.74,146.42 C320.64,141.52 326.84,138.06 330.77,138.02 C334.06,137.99 335.51,142.29 333.97,147.49 C332.39,152.76 327.68,156.98 320.20,159.81 C316.35,161.27 312.97,163.41 311.04,165.61 C304.25,173.34 297.06,191.38 291.34,215.00 ZM 162.52 364.63 C165.08,359.17 171.31,349.73 176.14,344.56 C180.96,339.40 186.56,334.53 192.57,330.19 C191.51,331.32 191.00,332.36 191.00,333.39 C191.00,335.12 189.13,337.31 184.14,341.39 C174.76,349.06 165.74,358.97 162.52,364.63 ZM 145.37 196.39 C150.83,194.53 150.91,193.19 145.66,191.37 C140.67,189.64 139.00,190.46 139.00,194.61 C139.00,198.51 139.07,198.54 145.37,196.39 ZM 204.96 322.32 C210.85,319.07 216.88,316.39 222.79,314.45 C217.83,316.18 210.89,319.29 204.96,322.32 ZM 200.88 165.48 C196.93,162.83 192.52,160.20 188.58,158.14 C192.75,160.14 196.83,162.58 200.88,165.48 ZM 225.20 313.64 C228.76,312.32 232.88,310.15 236.95,307.58 C232.82,310.21 228.67,312.41 225.20,313.64 ZM 170.72 371.02 C165.21,370.17 161.66,369.28 161.39,368.56 C161.38,368.55 161.38,368.54 161.37,368.52 C161.74,369.27 165.23,370.17 170.72,371.02 Z" fill="rgba(239,72,49,1)"/>
<path d="M 249.00 536.42 C247.07,536.19 241.23,535.52 236.00,534.92 C214.05,532.39 190.32,526.27 168.50,517.51 C133.60,503.49 106.17,485.28 78.94,458.06 C35.73,414.85 10.60,363.62 1.87,301.00 C0.12,288.48 0.12,248.52 1.87,236.00 C5.28,211.48 10.96,189.74 19.49,168.50 C33.51,133.60 51.72,106.17 78.94,78.94 C122.15,35.73 173.38,10.60 236.00,1.87 C248.52,0.12 288.48,0.12 301.00,1.87 C325.52,5.28 347.26,10.96 368.50,19.49 C403.40,33.51 430.83,51.72 458.06,78.94 C501.27,122.15 526.40,173.38 535.13,236.00 C535.92,241.63 536.46,254.86 536.46,268.50 C536.46,298.25 533.99,316.42 526.33,343.00 C513.60,387.18 491.23,424.88 458.06,458.06 C415.62,500.49 365.30,525.59 304.64,534.58 C295.01,536.01 256.46,537.28 249.00,536.42 ZM 399.34 417.37 C403.55,415.37 403.74,414.27 401.45,405.47 C398.75,395.09 392.70,387.40 383.15,382.17 L 377.81 379.25 L 387.65 378.53 C397.87,377.78 405.71,376.62 406.61,375.72 C407.41,374.92 402.27,365.22 397.43,358.38 C395.04,355.02 388.96,348.56 383.91,344.02 C370.34,331.85 357.88,324.26 342.21,318.63 C333.00,315.32 314.40,301.90 309.84,295.26 C304.92,288.12 302.06,278.78 301.94,269.50 L 301.83 261.50 L 298.48 268.50 C292.28,281.44 290.53,289.69 290.51,306.00 C290.50,319.38 290.75,321.37 293.72,331.69 C301.26,357.83 310.73,373.79 330.45,393.60 C351.69,414.91 364.10,420.54 387.59,419.48 C392.53,419.26 397.10,418.44 399.34,417.37 ZM 203.00 412.93 C214.04,410.42 227.53,401.47 240.01,388.38 C255.03,372.62 262.48,360.44 268.92,341.13 C277.75,314.64 276.82,291.36 265.99,268.25 C263.87,263.71 261.87,260.00 261.56,260.00 C261.24,260.00 261.27,262.43 261.62,265.39 C262.51,273.01 259.82,284.25 255.42,291.29 C250.60,299.00 234.12,310.88 223.71,314.16 C206.83,319.47 188.80,331.00 176.14,344.56 C169.62,351.55 160.53,366.33 161.39,368.56 C161.84,369.75 171.35,371.44 183.88,372.57 L 191.26 373.23 L 184.95 376.60 C181.47,378.46 177.32,381.22 175.72,382.74 C171.91,386.35 168.20,393.74 167.46,399.17 C167.14,401.55 166.68,404.48 166.44,405.67 C165.85,408.58 171.36,411.98 178.31,412.99 C186.02,414.12 197.89,414.09 203.00,412.93 ZM 311.25 280.46 C311.99,273.89 317.25,263.94 322.60,259.02 C328.15,253.90 339.32,248.56 347.50,247.11 C350.80,246.53 360.48,245.61 369.00,245.08 C396.99,243.32 417.94,235.71 432.01,222.19 C438.21,216.23 439.00,215.05 439.00,211.75 C439.00,208.05 438.93,207.99 429.75,203.39 C419.31,198.17 418.95,197.92 420.93,197.22 C426.52,195.24 435.98,181.68 437.60,173.32 C438.21,170.21 438.06,170.06 431.18,166.59 C413.12,157.49 392.85,155.82 375.34,161.97 C358.21,167.99 339.75,183.94 326.12,204.50 C311.61,226.40 306.82,239.82 306.70,259.00 C306.62,270.38 308.46,285.00 309.96,285.00 C310.39,285.00 310.97,282.96 311.25,280.46 ZM 255.34 278.75 C256.71,273.24 257.13,257.90 256.11,250.68 C252.90,228.04 238.88,202.50 217.23,179.90 C203.65,165.72 190.51,157.32 175.70,153.38 C167.63,151.23 150.73,151.20 141.84,153.33 C134.39,155.12 121.00,160.79 121.00,162.15 C121.00,162.64 122.12,165.80 123.49,169.16 C126.68,177.02 132.71,184.99 137.35,187.49 C139.36,188.57 141.00,189.72 141.00,190.05 C141.00,190.37 136.73,192.58 131.50,194.95 C122.20,199.17 122.00,199.33 122.00,202.67 C122.00,208.78 133.40,219.21 148.60,227.00 C163.17,234.47 177.55,238.25 198.17,240.05 C212.50,241.30 219.36,242.99 228.75,247.57 C240.67,253.39 250.86,266.02 252.65,277.20 C253.33,281.46 254.50,282.14 255.34,278.75 ZM 272.60 244.27 C271.59,243.25 270.75,244.78 271.58,246.13 C272.21,247.15 272.45,247.15 272.79,246.14 C273.02,245.44 272.94,244.60 272.60,244.27 ZM 271.55 235.75 C271.28,234.51 270.37,228.66 269.53,222.73 C268.69,216.81 266.62,204.89 264.94,196.23 C252.68,133.39 237.23,97.62 218.36,88.39 C212.05,85.30 211.59,85.56 210.52,92.69 C208.94,103.22 215.35,113.42 227.30,119.39 C230.48,120.98 234.45,123.91 236.11,125.89 C243.53,134.75 253.43,160.54 260.34,189.00 C264.21,204.91 270.00,233.18 270.00,236.13 C270.00,237.16 270.46,238.00 271.02,238.00 C271.58,238.00 271.82,236.99 271.55,235.75 ZM 291.34 215.00 C297.06,191.38 304.25,173.34 311.04,165.61 C312.97,163.41 316.35,161.27 320.20,159.81 C327.68,156.98 332.39,152.76 333.97,147.49 C335.51,142.29 334.06,137.99 330.77,138.02 C326.84,138.06 320.64,141.52 315.74,146.42 C304.87,157.29 295.23,181.65 289.46,212.82 C285.32,235.21 286.20,236.24 291.34,215.00 Z" fill="rgba(254,254,254,1)"/>
</g>
</svg>